<?xml version="1.0" encoding="UTF-8" standalone="no"?>
<!-- Created with Inkscape (http://www.inkscape.org/) -->

<svg
   width="210mm"
   height="297mm"
   viewBox="0 0 210 297"
   version="1.1"
   id="svg1"
   inkscape:version="1.2.2 (b0a8486541, 2022-12-01)"
   sodipodi:docname="logo.svg"
   xmlns:inkscape="http://www.inkscape.org/namespaces/inkscape"
   xmlns:sodipodi="http://sodipodi.sourceforge.net/DTD/sodipodi-0.dtd"
   xmlns="http://www.w3.org/2000/svg"
   xmlns:svg="http://www.w3.org/2000/svg">
  <sodipodi:namedview
     id="namedview1"
     pagecolor="#ffffff"
     bordercolor="#999999"
     borderopacity="1"
     inkscape:showpageshadow="2"
     inkscape:pageopacity="0"
     inkscape:pagecheckerboard="0"
     inkscape:deskcolor="#d1d1d1"
     inkscape:document-units="mm"
     inkscape:zoom="2.0157702"
     inkscape:cx="196.20292"
     inkscape:cy="649.62762"
     inkscape:window-width="1854"
     inkscape:window-height="1011"
     inkscape:window-x="66"
     inkscape:window-y="32"
     inkscape:window-maximized="1"
     inkscape:current-layer="layer1"
     showgrid="false"
     showguides="false" />
  <defs
     id="defs1" />
  <g
     inkscape:groupmode="layer"
     id="layer2"
     inkscape:label="Layer 2"
     style="fill:#e7e7e7;fill-opacity:1">
    <path
       style="fill:#a3f7ff;fill-opacity:1;stroke:none;stroke-width:3.165;stroke-linecap:round;stroke-linejoin:round;stroke-dasharray:none;stroke-opacity:1;paint-order:normal"
       d="m 16.443053,139.71805 2.576121,10.71872 19.527527,-0.0708 2.866898,-10.68834 z"
       id="path3093" />
  </g>
  <g
     inkscape:label="Layer 1"
     inkscape:groupmode="layer"
     id="layer1">
    <path
       style="baseline-shift:baseline;display:inline;overflow:visible;vector-effect:none;fill:#000000;enable-background:accumulate;stop-color:#000000"
       d="m 14.584464,138.02869 3.318359,11.55664 c 0.338459,1.2075 1.44334,2.05804 2.697266,2.07422 h 0.0078 16.707031 0.002 c 1.264286,-0.004 2.383282,-0.85687 2.72461,-2.07422 l 0.445312,-1.58593 h -0.0059 l 2.863281,-9.97071 z m 3.318359,2.5 H 40.02587 l -2.410156,8.39844 c -0.04946,0.13633 -0.158229,0.232 -0.306641,0.23242 H 20.633292 c -0.156574,-0.002 -0.281957,-0.0973 -0.324219,-0.24804 l -0.002,-0.004 z"
       id="path1" />
    <path
       style="baseline-shift:baseline;display:inline;overflow:visible;vector-effect:none;fill:#000000;stroke-width:1;enable-background:accumulate;stop-color:#000000"
       d="m 21.353994,150.40955 c 0,4.77018 0,9.54037 0,14.31055 1.018567,0 2.037135,0 3.055702,0 0,-4.77018 0,-9.54037 0,-14.31055 -1.018567,0 -2.037135,0 -3.055702,0 z"
       id="path2" />
    <path
       style="baseline-shift:baseline;display:inline;overflow:visible;vector-effect:none;fill:#000000;enable-background:accumulate;stop-color:#000000"
       d="m 25.430167,139.10096 -2.472657,0.35351 1.589844,11.13086 2.47461,-0.35351 z"
       id="path4" />
    <path
       style="baseline-shift:baseline;display:inline;overflow:visible;vector-effect:none;fill:#000000;enable-background:accumulate;stop-color:#000000"
       d="m 32.498526,139.10096 -1.591797,11.13086 2.47461,0.35351 1.589843,-11.13086 z"
       id="path5" />
    <path
       style="baseline-shift:baseline;display:inline;overflow:visible;vector-effect:none;fill:#000000;enable-background:accumulate;stop-color:#000000"
       d="m 27.715323,132.91736 v 6.36133 h 2.498047 v -6.36133 z"
       id="path6" />
    <path
       style="baseline-shift:baseline;display:inline;overflow:visible;vector-effect:none;fill:#000000;enable-background:accumulate;stop-color:#000000"
       d="m 27.373526,131.66932 v 2.49804 h 3.181641 v -2.49804 z"
       id="path7" />
    <path
       style="baseline-shift:baseline;display:inline;overflow:visible;vector-effect:none;fill:#000000;enable-background:accumulate;stop-color:#000000"
       d="m 37.047354,149.3783 c -4.223852,0 -8.495777,2.36143 -10.388672,6.95117 l -0.0078,0.0195 -0.0078,0.0195 c -0.174168,0.4692 -0.174168,0.98587 0,1.45507 l 1.115235,-0.41406 -1.09961,0.45313 c 1.892895,4.58975 6.16482,6.95312 10.388672,6.95312 4.223852,0 8.495777,-2.36337 10.388672,-6.95312 l 0.0078,-0.0195 0.0078,-0.0195 c 0.174168,-0.4692 0.174168,-0.98587 0,-1.45507 l -0.0078,-0.0195 -0.0078,-0.0195 c -1.892895,-4.58974 -6.16482,-6.95117 -10.388672,-6.95117 z m 0,2.30469 c 3.343927,0 6.628082,1.77222 8.189453,5.41406 -1.561385,3.6418 -4.845548,5.41211 -8.189453,5.41211 -3.343888,0 -6.626106,-1.77035 -8.1875,-5.41211 1.56138,-3.64181 4.843587,-5.41406 8.1875,-5.41406 z"
       id="path1-2" />
    <path
       style="baseline-shift:baseline;display:inline;overflow:visible;vector-effect:none;fill:#c40048;fill-opacity:1;stroke-width:0.922331;enable-background:accumulate;stop-color:#000000"
       d="m 37.046926,153.12943 c -2.177346,0 -3.966728,1.78939 -3.966728,3.96674 0,2.17733 1.789381,3.96672 3.966728,3.96672 2.177346,0 3.966729,-1.78939 3.966729,-3.96672 0,-2.17735 -1.789383,-3.96674 -3.966729,-3.96674 z m 0,2.30582 c 0.931185,0 1.660909,0.72973 1.660909,1.66092 0,0.93118 -0.729724,1.6609 -1.660909,1.6609 -0.931184,0 -1.66091,-0.72972 -1.66091,-1.6609 0,-0.93119 0.729726,-1.66092 1.66091,-1.66092 z"
       id="circle1"
       inkscape:export-filename="/home/norderan/Downloads/logoExport.png"
       inkscape:export-xdpi="96"
       inkscape:export-ydpi="96" />
    <path
       style="fill:#94e9ff;stroke:#0f315b;stroke-width:3.165;stroke-linecap:round;stroke-linejoin:round;stroke-dasharray:none;stroke-opacity:1;paint-order:normal;fill-opacity:1"
       d="m 69.11363,156.49825 18.612784,0.0331 3.173588,-10.88347 -25.237179,-0.003 z"
       id="path583" />
    <path
       style="fill:none;stroke:#0f315b;stroke-width:3.165;stroke-linecap:round;stroke-linejoin:round;stroke-dasharray:none;stroke-opacity:1;paint-order:normal"
       d="m 73.143977,156.82338 0.04005,16.85369 z"
       id="path1262" />
    <path
       style="fill:none;stroke:#0f315b;stroke-width:3.165;stroke-linecap:round;stroke-linejoin:round;stroke-dasharray:none;stroke-opacity:1;paint-order:normal"
       d="m 83.636643,157.98896 0.04005,4.22508 z"
       id="path1262-3" />
    <path
       style="fill:none;stroke:#0f315b;stroke-width:3.165;stroke-linecap:round;stroke-linejoin:round;stroke-dasharray:none;stroke-opacity:1;paint-order:normal"
       d="m 83.746722,170.45482 0.04005,3.23589 z"
       id="path1262-3-6" />
    <path
       style="fill:none;stroke:#0f315b;stroke-width:3.165;stroke-linecap:round;stroke-linejoin:round;stroke-dasharray:none;stroke-opacity:1;paint-order:normal"
       d="m 72.602584,156.39964 5.490117,-10.79036 5.307653,10.84482 z"
       id="path1264" />
    <ellipse
       style="fill:#94e9ff;stroke:#0f315b;stroke-width:3.16499;stroke-linecap:round;stroke-linejoin:round;stroke-dasharray:none;stroke-opacity:1;paint-order:normal;fill-opacity:1"
       id="path1327"
       cx="88.703178"
       cy="166.10582"
       rx="7.4840012"
       ry="4.7593799" />
    <ellipse
       style="fill:#c40048;fill-opacity:1;stroke:none;stroke-width:3.165;stroke-linecap:round;stroke-linejoin:round;stroke-dasharray:none;stroke-opacity:1;paint-order:normal"
       id="path1335"
       cx="88.733459"
       cy="166.11394"
       rx="2.5024943"
       ry="2.3725698" />
    <path
       style="fill:none;stroke:#0f315b;stroke-width:3.165;stroke-linecap:round;stroke-linejoin:round;stroke-dasharray:none;stroke-opacity:1;paint-order:normal"
       d="M 78.262445,145.72159 78.1634,138.95558 Z"
       id="path1366" />
    <path
       style="fill:none;stroke:#0f315b;stroke-width:3.165;stroke-linecap:round;stroke-linejoin:round;stroke-dasharray:none;stroke-opacity:1;paint-order:normal"
       d="m 76.441243,138.75656 3.576074,-0.0328 z"
       id="path1368" />
    <path
       style="fill:none;fill-opacity:1;stroke:#0f315b;stroke-width:3.165;stroke-linecap:round;stroke-linejoin:round;stroke-dasharray:none;stroke-opacity:1;paint-order:normal"
       d="m 83.602773,172.81762 -9.707305,-5.02175 9.396613,-5.00042 -8.776726,-5.88671"
       id="path2311" />
  </g>
</svg>
