<?xml version="1.0" encoding="UTF-8" standalone="no"?>
<!-- Created with Inkscape (http://www.inkscape.org/) -->

<svg
   width="210mm"
   height="297mm"
   viewBox="0 0 210 297"
   version="1.1"
   id="svg1"
   inkscape:version="1.4.2 (ebf0e940d0, 2025-05-08)"
   sodipodi:docname="logo.svg"
   xmlns:inkscape="http://www.inkscape.org/namespaces/inkscape"
   xmlns:sodipodi="http://sodipodi.sourceforge.net/DTD/sodipodi-0.dtd"
   xmlns="http://www.w3.org/2000/svg"
   xmlns:svg="http://www.w3.org/2000/svg">
  <sodipodi:namedview
     id="namedview1"
     pagecolor="#ffffff"
     bordercolor="#999999"
     borderopacity="1"
     inkscape:showpageshadow="2"
     inkscape:pageopacity="0"
     inkscape:pagecheckerboard="0"
     inkscape:deskcolor="#d1d1d1"
     inkscape:document-units="mm"
     inkscape:zoom="2.0157702"
     inkscape:cx="81.35848"
     inkscape:cy="581.41548"
     inkscape:window-width="1920"
     inkscape:window-height="1011"
     inkscape:window-x="0"
     inkscape:window-y="0"
     inkscape:window-maximized="1"
     inkscape:current-layer="layer1" />
  <defs
     id="defs1" />
  <g
     inkscape:label="Layer 1"
     inkscape:groupmode="layer"
     id="layer1">
    <path
       style="baseline-shift:baseline;display:inline;overflow:visible;vector-effect:none;fill:#000000;enable-background:accumulate;stop-color:#000000"
       d="m 30.03575,144.73893 3.318359,11.55664 c 0.338459,1.2075 1.44334,2.05804 2.697266,2.07422 h 0.0078 16.707031 0.002 c 1.264286,-0.004 2.383282,-0.85687 2.72461,-2.07422 l 0.445312,-1.58593 h -0.0059 l 2.863281,-9.97071 z m 3.318359,2.5 H 55.477156 L 53.067,155.63737 c -0.04946,0.13633 -0.158229,0.232 -0.306641,0.23242 H 36.084578 c -0.156574,-0.002 -0.281957,-0.0973 -0.324219,-0.24804 l -0.002,-0.004 z"
       id="path1" />
    <path
       style="baseline-shift:baseline;display:inline;overflow:visible;vector-effect:none;fill:#000000;enable-background:accumulate;stop-color:#000000"
       d="m 36.805281,157.11979 v 14.31055 h 2.5 v -14.31055 z"
       id="path2" />
    <path
       style="baseline-shift:baseline;display:inline;overflow:visible;vector-effect:none;fill:#000000;enable-background:accumulate;stop-color:#000000"
       d="m 40.881453,145.8112 -2.472657,0.35351 1.589844,11.13086 2.47461,-0.35351 z"
       id="path4" />
    <path
       style="baseline-shift:baseline;display:inline;overflow:visible;vector-effect:none;fill:#000000;enable-background:accumulate;stop-color:#000000"
       d="m 47.949812,145.8112 -1.591797,11.13086 2.47461,0.35351 1.589843,-11.13086 z"
       id="path5" />
    <path
       style="baseline-shift:baseline;display:inline;overflow:visible;vector-effect:none;fill:#000000;enable-background:accumulate;stop-color:#000000"
       d="m 43.166609,139.6276 v 6.36133 h 2.498047 v -6.36133 z"
       id="path6" />
    <path
       style="baseline-shift:baseline;display:inline;overflow:visible;vector-effect:none;fill:#000000;enable-background:accumulate;stop-color:#000000"
       d="m 42.824812,138.37956 v 2.49804 h 3.181641 v -2.49804 z"
       id="path7" />
    <path
       style="baseline-shift:baseline;display:inline;overflow:visible;vector-effect:none;fill:#000000;enable-background:accumulate;stop-color:#000000"
       d="m 52.49864,156.08854 c -4.223852,0 -8.495777,2.36143 -10.388672,6.95117 l -0.0078,0.0195 -0.0078,0.0195 c -0.174168,0.4692 -0.174168,0.98587 0,1.45507 l 1.115235,-0.41406 -1.09961,0.45313 c 1.892895,4.58975 6.16482,6.95312 10.388672,6.95312 4.223852,0 8.495777,-2.36337 10.388672,-6.95312 l 0.0078,-0.0195 0.0078,-0.0195 c 0.174168,-0.4692 0.174168,-0.98587 0,-1.45507 l -0.0078,-0.0195 -0.0078,-0.0195 c -1.892895,-4.58974 -6.16482,-6.95117 -10.388672,-6.95117 z m 0,2.30469 c 3.343927,0 6.628082,1.77222 8.189453,5.41406 -1.561385,3.6418 -4.845548,5.41211 -8.189453,5.41211 -3.343888,0 -6.626106,-1.77035 -8.1875,-5.41211 1.56138,-3.64181 4.843587,-5.41406 8.1875,-5.41406 z"
       id="path1-2" />
    <path
       style="baseline-shift:baseline;display:inline;overflow:visible;vector-effect:none;fill:#c40048;stroke-width:0.922331;enable-background:accumulate;stop-color:#000000;fill-opacity:1"
       d="m 52.498212,159.83967 c -2.177346,0 -3.966728,1.78939 -3.966728,3.96674 0,2.17733 1.789381,3.96672 3.966728,3.96672 2.177346,0 3.966729,-1.78939 3.966729,-3.96672 0,-2.17735 -1.789383,-3.96674 -3.966729,-3.96674 z m 0,2.30582 c 0.931185,0 1.660909,0.72973 1.660909,1.66092 0,0.93118 -0.729724,1.6609 -1.660909,1.6609 -0.931184,0 -1.66091,-0.72972 -1.66091,-1.6609 0,-0.93119 0.729726,-1.66092 1.66091,-1.66092 z"
       id="circle1" />
  </g>
</svg>
